<svg width="89" height="25" viewBox="0 0 89 25" fill="none" xmlns="http://www.w3.org/2000/svg">
<path d="M0.56 24V0.959999H4.912V19.936H14.832V24H0.56ZM27.7755 24.48C25.4715 24.48 23.4822 23.9787 21.8075 22.976C20.1435 21.9733 18.8582 20.5707 17.9515 18.768C17.0555 16.9653 16.6075 14.8693 16.6075 12.48C16.6075 10.0907 17.0555 7.99467 17.9515 6.192C18.8582 4.38933 20.1435 2.98667 21.8075 1.984C23.4822 0.981333 25.4715 0.48 27.7755 0.48C30.0795 0.48 32.0635 0.981333 33.7275 1.984C35.4022 2.98667 36.6875 4.38933 37.5835 6.192C38.4902 7.99467 38.9435 10.0907 38.9435 12.48C38.9435 14.8693 38.4902 16.9653 37.5835 18.768C36.6875 20.5707 35.4022 21.9733 33.7275 22.976C32.0635 23.9787 30.0795 24.48 27.7755 24.48ZM27.7755 20.384C29.2368 20.4053 30.4528 20.0907 31.4235 19.44C32.3942 18.7893 33.1195 17.8667 33.5995 16.672C34.0902 15.4773 34.3355 14.08 34.3355 12.48C34.3355 10.88 34.0902 9.49333 33.5995 8.32C33.1195 7.14667 32.3942 6.23467 31.4235 5.584C30.4528 4.93333 29.2368 4.59733 27.7755 4.576C26.3142 4.55467 25.0982 4.86933 24.1275 5.52C23.1568 6.17067 22.4262 7.09333 21.9355 8.288C21.4555 9.48267 21.2155 10.88 21.2155 12.48C21.2155 14.08 21.4555 15.4667 21.9355 16.64C22.4262 17.8133 23.1568 18.7253 24.1275 19.376C25.0982 20.0267 26.3142 20.3627 27.7755 20.384ZM52.6975 24.48C51.2468 24.48 49.8655 24.224 48.5535 23.712C47.2415 23.1893 46.0788 22.4213 45.0655 21.408C44.0628 20.3947 43.2682 19.1413 42.6815 17.648C42.1055 16.1547 41.8175 14.432 41.8175 12.48C41.8175 9.93067 42.3028 7.76533 43.2735 5.984C44.2548 4.192 45.5668 2.82667 47.2095 1.888C48.8628 0.949333 50.6922 0.48 52.6975 0.48C55.6628 0.48 57.9935 1.168 59.6895 2.544C61.3855 3.92 62.5215 5.86667 63.0975 8.384L58.6495 9.024C58.2335 7.68 57.5508 6.608 56.6015 5.808C55.6628 4.99733 54.4575 4.58667 52.9855 4.576C51.5242 4.55467 50.3082 4.86933 49.3375 5.52C48.3668 6.17067 47.6362 7.09333 47.1455 8.288C46.6655 9.48267 46.4255 10.88 46.4255 12.48C46.4255 14.08 46.6655 15.4667 47.1455 16.64C47.6362 17.8133 48.3668 18.7253 49.3375 19.376C50.3082 20.0267 51.5242 20.3627 52.9855 20.384C53.9775 20.4053 54.8735 20.2347 55.6735 19.872C56.4842 19.5093 57.1668 18.9387 57.7215 18.16C58.2762 17.3813 58.6708 16.384 58.9055 15.168H55.2575V11.808H63.5455C63.5668 11.9467 63.5828 12.192 63.5935 12.544C63.6042 12.896 63.6095 13.0987 63.6095 13.152C63.6095 15.36 63.1615 17.3173 62.2655 19.024C61.3695 20.7307 60.1055 22.0693 58.4735 23.04C56.8415 24 54.9162 24.48 52.6975 24.48ZM77.6642 24.48C75.3602 24.48 73.3709 23.9787 71.6962 22.976C70.0322 21.9733 68.7469 20.5707 67.8402 18.768C66.9442 16.9653 66.4962 14.8693 66.4962 12.48C66.4962 10.0907 66.9442 7.99467 67.8402 6.192C68.7469 4.38933 70.0322 2.98667 71.6962 1.984C73.3709 0.981333 75.3602 0.48 77.6642 0.48C79.9682 0.48 81.9522 0.981333 83.6162 1.984C85.2909 2.98667 86.5762 4.38933 87.4722 6.192C88.3789 7.99467 88.8322 10.0907 88.8322 12.48C88.8322 14.8693 88.3789 16.9653 87.4722 18.768C86.5762 20.5707 85.2909 21.9733 83.6162 22.976C81.9522 23.9787 79.9682 24.48 77.6642 24.48ZM77.6642 20.384C79.1256 20.4053 80.3416 20.0907 81.3122 19.44C82.2829 18.7893 83.0082 17.8667 83.4882 16.672C83.9789 15.4773 84.2242 14.08 84.2242 12.48C84.2242 10.88 83.9789 9.49333 83.4882 8.32C83.0082 7.14667 82.2829 6.23467 81.3122 5.584C80.3416 4.93333 79.1256 4.59733 77.6642 4.576C76.2029 4.55467 74.9869 4.86933 74.0162 5.52C73.0456 6.17067 72.3149 7.09333 71.8242 8.288C71.3442 9.48267 71.1042 10.88 71.1042 12.48C71.1042 14.08 71.3442 15.4667 71.8242 16.64C72.3149 17.8133 73.0456 18.7253 74.0162 19.376C74.9869 20.0267 76.2029 20.3627 77.6642 20.384Z" fill="white"/>
</svg>
